<svg width="191" height="173" viewBox="0 0 191 173" fill="none" xmlns="http://www.w3.org/2000/svg">
<path d="M38.5 12.1303L38.5 38.9126H47.5H53C74 38.9126 85.5 37.8077 99 43C112.5 48.1923 124.5 57.5 127.5 60.5C130.5 63.5 138 73 141.5 79.5C145 86 150 100.5 149.5 120.5C151.5 117.5 155 106 156 101C157 96 157 85 156.5 79.5C156 74 154.977 67.04 152 60.5C147.947 51.5975 143.5 43.5 139 38.5C134.5 33.5 129 28 121 23C113 18 95.5 12 86 12C76.5 12 67.328 12.1303 67.328 12.1303C60.6665 12.1303 45.1359 12.3591 38.5 12.1303Z" fill="#2C3333" stroke="#2C3333" stroke-width="2" stroke-linecap="round"/>
<path d="M67.5 51.7054H38.5V162.5H87.5C94.5 162.5 102.5 161.5 115.5 154.5C119.287 152.461 123 147 127.5 139C132 131 134.5 121.5 135 110C135.5 98.5 134.5 96 133 88.5C131.5 81 127.5 72.5 124 68.5C129 83.5 127 94.5 126 99C125 103.5 121.5 111.5 115.5 118C109.5 124.5 102 130.5 92.5 132C83 133.5 67.5 133 67.5 133V51.7054Z" fill="#2C3333" stroke="#2C3333" stroke-linecap="round"/>
</svg>
